<?xml version="1.0" encoding="UTF-8" standalone="no"?>
<svg
   xmlns:dc="http://purl.org/dc/elements/1.1/"
   xmlns:cc="http://creativecommons.org/ns#"
   xmlns:rdf="http://www.w3.org/1999/02/22-rdf-syntax-ns#"
   xmlns:svg="http://www.w3.org/2000/svg"
   xmlns="http://www.w3.org/2000/svg"
   xmlns:sodipodi="http://sodipodi.sourceforge.net/DTD/sodipodi-0.dtd"
   xmlns:inkscape="http://www.inkscape.org/namespaces/inkscape"
   version="1.1"
   id="Layer_1"
   x="0px"
   y="0px"
   viewBox="0 0 991.64068 261.67894"
   xml:space="preserve"
   sodipodi:docname="logo.svg"
   width="991.64062"
   height="261.67892"
   inkscape:version="1.0.2-2 (e86c870879, 2021-01-15)"><metadata
   id="metadata68"><rdf:RDF><cc:Work
       rdf:about=""><dc:format>image/svg+xml</dc:format><dc:type
         rdf:resource="http://purl.org/dc/dcmitype/StillImage" /><dc:title></dc:title></cc:Work></rdf:RDF></metadata><defs
   id="defs66" /><sodipodi:namedview
   pagecolor="#ffffff"
   bordercolor="#666666"
   borderopacity="1"
   objecttolerance="10"
   gridtolerance="10"
   guidetolerance="10"
   inkscape:pageopacity="0"
   inkscape:pageshadow="2"
   inkscape:window-width="1920"
   inkscape:window-height="1009"
   id="namedview64"
   showgrid="false"
   fit-margin-top="0"
   fit-margin-left="0"
   fit-margin-right="0"
   fit-margin-bottom="0"
   inkscape:zoom="0.80442073"
   inkscape:cx="687.13506"
   inkscape:cy="186.5612"
   inkscape:window-x="-8"
   inkscape:window-y="-8"
   inkscape:window-maximized="1"
   inkscape:current-layer="Layer_1"
   inkscape:document-rotation="0" />

<g
   id="g33"
   transform="translate(752.78264,-6.564066e-5)">
</g>
<g
   id="g35"
   transform="translate(752.78264,-6.564066e-5)">
</g>
<g
   id="g37"
   transform="translate(752.78264,-6.564066e-5)">
</g>
<g
   id="g39"
   transform="translate(752.78264,-6.564066e-5)">
</g>
<g
   id="g41"
   transform="translate(752.78264,-6.564066e-5)">
</g>
<g
   id="g43"
   transform="translate(752.78264,-6.564066e-5)">
</g>
<g
   id="g45"
   transform="translate(752.78264,-6.564066e-5)">
</g>
<g
   id="g47"
   transform="translate(752.78264,-6.564066e-5)">
</g>
<g
   id="g49"
   transform="translate(752.78264,-6.564066e-5)">
</g>
<g
   id="g51"
   transform="translate(752.78264,-6.564066e-5)">
</g>
<g
   id="g53"
   transform="translate(752.78264,-6.564066e-5)">
</g>
<g
   id="g55"
   transform="translate(752.78264,-6.564066e-5)">
</g>
<g
   id="g57"
   transform="translate(752.78264,-6.564066e-5)">
</g>
<g
   id="g59"
   transform="translate(752.78264,-6.564066e-5)">
</g>
<g
   id="g61"
   transform="translate(752.78264,-6.564066e-5)">
</g>
<g
   id="g58"><g
     id="g31"
     transform="translate(752.78264,-6.564066e-5)">
	<g
   id="g29">
		<path
   style="fill:#4effbb"
   d="m 230.477,25.037 c -20.427,8.594 -40.89,17.187 -61.353,25.781 -13.75,-5.797 -27.517,-11.57 -41.278,-17.346 v 211.446 c 12.883,5.41 25.774,10.82 38.636,16.233 0.88,0.352 1.691,0.493 2.43,0.493 0.07,0 0.141,0 0.247,0.035 0.035,-0.035 0.106,-0.035 0.141,-0.035 0.775,0 1.585,-0.141 2.465,-0.493 20.744,-8.735 41.489,-17.434 62.233,-26.133 2.747,-1.162 4.86,-3.205 4.86,-6.375 V 31.412 c 0.002,-3.839 -4.33,-8.066 -8.381,-6.375 z"
   id="path2" />
		<g
   id="g27">
			<g
   id="XMLID_6_">
				<g
   id="g24">
					<path
   style="fill:#302c58"
   d="m 147.57,97.026 c 0,41.066 0,82.133 0,123.199 -16.342,-6.833 -32.684,-13.701 -49.026,-20.568 0,-29.409 0,-58.852 0,-88.261 h 6.023 c 0,4.86 3.945,8.805 8.805,8.805 4.86,0 8.805,-3.945 8.805,-8.805 0,-3.346 -1.867,-6.234 -4.614,-7.748 l 9.932,-1.691 c 1.585,2.325 4.262,3.874 7.29,3.874 4.86,0 8.805,-3.945 8.805,-8.805 0,0 3.98,0 3.98,0 z"
   id="path4" />
					<path
   style="fill:#302c58"
   d="m 147.57,37.223 c 0,19.934 0,39.869 0,59.803 h -3.98 c 0,-4.86 -3.945,-8.805 -8.805,-8.805 -4.86,0 -8.805,3.945 -8.805,8.805 0,1.831 0.564,3.522 1.514,4.931 l -9.932,1.691 c -1.233,-0.669 -2.677,-1.057 -4.191,-1.057 -4.86,0 -8.805,3.945 -8.805,8.805 h -6.023 c 0,-31.592 0,-63.149 0,-94.741 16.343,6.832 32.685,13.7 49.027,20.568 z"
   id="path6" />
					<circle
   style="fill:#222051"
   cx="197.617"
   cy="54.762001"
   r="8.8050003"
   id="circle8" />
					<path
   style="fill:#222051"
   d="m 177.929,69.555 c 4.86,0 8.805,3.945 8.805,8.805 0,4.896 -3.945,8.805 -8.805,8.805 -4.86,0 -8.805,-3.909 -8.805,-8.805 0,-4.861 3.945,-8.805 8.805,-8.805 z"
   id="path10" />
					<path
   style="fill:#222051"
   d="m 134.785,88.221 c 4.86,0 8.805,3.945 8.805,8.805 0,4.86 -3.945,8.805 -8.805,8.805 -3.029,0 -5.706,-1.55 -7.29,-3.874 -0.951,-1.409 -1.514,-3.099 -1.514,-4.931 -10e-4,-4.86 3.944,-8.805 8.804,-8.805 z"
   id="path12" />
					<path
   style="fill:#222051"
   d="m 117.563,103.648 c 2.747,1.514 4.614,4.402 4.614,7.748 0,4.86 -3.945,8.805 -8.805,8.805 -4.86,0 -8.805,-3.945 -8.805,-8.805 0,-4.86 3.945,-8.805 8.805,-8.805 1.514,0 2.958,0.387 4.191,1.057 z"
   id="path14" />
					<path
   style="fill:#222051"
   d="M 216.389,0.383 C 195.962,8.977 175.499,17.57 155.036,26.164 134.82,17.641 114.604,9.153 94.352,0.665 94.282,0.63 94.246,0.63 94.176,0.595 94.001,0.524 93.86,0.454 93.719,0.383 c -0.07,0 -0.141,0 -0.211,-0.035 C 93.156,0.242 92.839,0.137 92.487,0.101 92.276,0.066 92.029,0.066 91.783,0.066 c -0.211,0 -0.458,0 -0.669,0.035 -0.352,0.035 -0.669,0.141 -1.021,0.247 -0.07,0.035 -0.141,0.035 -0.211,0.035 -0.141,0.07 -0.282,0.141 -0.458,0.211 -0.07,0.035 -0.106,0.035 -0.176,0.07 -20.535,8.63 -41.068,17.223 -61.566,25.852 -2.747,1.162 -4.86,3.205 -4.86,6.375 v 14.165 c 0,3.649 2.955,6.604 6.604,6.604 v 0 c 3.645,0 6.604,-2.955 6.604,-6.604 V 37.223 C 52.372,30.355 68.714,23.487 85.056,16.655 V 199.657 C 68.714,206.525 52.372,213.393 36.03,220.225 V 111.192 c 0,-3.645 -2.958,-6.604 -6.604,-6.604 v 0 c -3.649,0 -6.604,2.958 -6.604,6.604 v 118.93 c 0,1.796 0.599,3.17 1.55,4.191 1.268,2.219 3.663,3.487 6.833,2.184 20.181,-8.488 40.397,-16.976 60.578,-25.464 20.216,8.488 40.432,16.976 60.613,25.464 0.88,0.352 1.691,0.493 2.43,0.493 0.07,0 0.141,0 0.247,0.035 0.035,-0.035 0.106,-0.035 0.141,-0.035 0.775,0 1.585,-0.141 2.465,-0.493 20.744,-8.735 41.489,-17.434 62.233,-26.133 2.747,-1.162 4.86,-3.205 4.86,-6.375 V 6.758 c 0,-3.839 -4.332,-8.065 -8.383,-6.375 z M 147.57,220.225 C 131.228,213.392 114.886,206.524 98.544,199.657 V 16.655 c 16.342,6.833 32.684,13.701 49.026,20.568 z m 63.959,-20.568 c -16.307,6.868 -32.649,13.736 -48.991,20.568 V 37.223 c 16.342,-6.868 32.684,-13.736 48.991,-20.568 z"
   id="path16" />
					<path
   style="fill:#222051"
   d="m 29.425,92.007 v 0 c 3.645,0 6.604,-2.958 6.604,-6.604 V 72.844 c 0,-3.645 -2.958,-6.604 -6.604,-6.604 v 0 c -3.649,0 -6.604,2.958 -6.604,6.604 v 12.559 c 0,3.646 2.959,6.604 6.604,6.604 z"
   id="path18" />
					<path
   style="fill:#222051"
   d="m 67.128,129.605 c 4.896,0 8.805,3.945 8.805,8.805 0,4.86 -3.909,8.805 -8.805,8.805 -4.86,0 -8.805,-3.945 -8.805,-8.805 0,-4.86 3.944,-8.805 8.805,-8.805 z"
   id="path20" />
					<path
   style="fill:#222051"
   d="m 52.899,155.843 c 4.86,0 8.805,3.945 8.805,8.805 0,4.896 -3.945,8.805 -8.805,8.805 -4.86,0 -8.805,-3.909 -8.805,-8.805 0,-4.86 3.945,-8.805 8.805,-8.805 z"
   id="path22" />
				</g>
			</g>
		</g>
	</g>
</g><text
     xml:space="preserve"
     style="font-weight:bold;font-size:200px;line-height:1.25;font-family:Poppins;-inkscape-font-specification:'Poppins Bold';letter-spacing:0px"
     x="-16.6"
     y="200.83948"
     id="text72"><tspan
       sodipodi:role="line"
       id="tspan70"
       x="-16.6"
       y="200.83948"
       style="font-style:normal;font-variant:normal;font-weight:bold;font-stretch:normal;font-size:200px;font-family:Montserrat;-inkscape-font-specification:'Montserrat Bold';fill:#333333">ISSAPP</tspan></text></g></svg>
